<?xml version="1.0"?>
<svg xmlns="http://www.w3.org/2000/svg" xmlns:xlink="http://www.w3.org/1999/xlink" version="1.1" id="Capa_1" x="0px" y="0px" viewBox="0 0 490.667 490.667" style="enable-background:new 0 0 490.667 490.667;" xml:space="preserve" width="512px" height="512px"><g><g>
	<g>
		<path d="M245.333,0C110.059,0,0,110.059,0,245.333s110.059,245.333,245.333,245.333s245.333-110.059,245.333-245.333    S380.608,0,245.333,0z M402.219,274.219L252.885,423.723c-2.005,2.005-4.715,3.115-7.552,3.115s-5.547-1.131-7.552-3.115    L88.448,274.219c-3.072-3.051-3.968-7.637-2.304-11.627C87.787,258.603,91.691,256,96,256h74.667V96.171    c0-5.888,4.779-10.667,10.667-10.667h128c5.888,0,10.667,4.779,10.667,10.667V256h74.667c4.309,0,8.213,2.603,9.856,6.592    C406.165,266.56,405.269,271.147,402.219,274.219z" data-original="#000000" class="active-path" data-old_color="#000000" fill="#777FFE"/>
	</g>
</g></g> </svg>
